<svg width="200mm" height="200mm" version="1.1" viewBox="0 0 200 200" xmlns="http://www.w3.org/2000/svg">
	<path d="m191.88 154.04-22.132 38.334-22.132-38.334z" fill="#bababa" stroke-linecap="round" stroke-linejoin="round" stroke-width="36.038" style="paint-order:fill markers stroke"/>
	<rect x="2.4466" y="36.34" width="195.11" height="122.33" rx="17.605" fill="#ddd" stroke-linecap="round" stroke-linejoin="round" stroke-width="40.435" style="paint-order:fill markers stroke"/>
	<g fill="#a0a0a0" stroke-width="1.2837" aria-label="120K">
		<path d="m54.05 82.029v35.942h-12.118v-26.803h-6.1616v-9.1397z"/>
		<path d="m87.218 108.57v9.3964h-28.805v-7.4452l12.991-12.015q1.6944-1.5917 2.2592-2.7214t0.56481-2.2079q0-1.335-0.92424-2.0539-0.87289-0.7702-2.5673-0.7702-1.6431 0-3.0808 0.87289-1.4377 0.87289-2.2079 2.4646l-9.1397-4.5698q2.0539-3.851 6.0075-6.0589 3.9537-2.2592 9.5504-2.2592 4.2618 0 7.5479 1.3864t5.1346 3.9537q1.8485 2.5673 1.8485 5.9048 0 2.9781-1.2837 5.5968-1.2323 2.5673-4.8779 5.8535l-5.1346 4.6725z"/>
		<path d="m105.93 118.79q-4.7752 0-8.4722-2.2079-3.6456-2.2592-5.7508-6.4696-2.0539-4.2618-2.0539-10.115 0-5.8535 2.0539-10.064 2.1052-4.2618 5.7508-6.4696 3.6969-2.2592 8.4722-2.2592 4.7752 0 8.4208 2.2592 3.6969 2.2079 5.7508 6.4696 2.1052 4.2104 2.1052 10.064 0 5.8535-2.1052 10.115-2.0539 4.2104-5.7508 6.4696-3.6456 2.2079-8.4208 2.2079zm0-9.7045q4.1077 0 4.1077-9.0883t-4.1077-9.0883q-4.1077 0-4.1077 9.0883t4.1077 9.0883z"/>
		<path d="m141.23 106.06-2.7214 3.0294v8.8829h-11.912v-35.942h11.912v13.042l11.81-13.042h13.196l-14.377 15.815 15.096 20.128h-14.018z"/>
	</g>
</svg>
